<svg xmlns="http://www.w3.org/2000/svg" viewBox="0 0 494.74 157.31"><defs><style>.cls-1{fill:none;stroke-width:6px;}.cls-1,.cls-3{stroke:#f15a29;stroke-miterlimit:10;}.cls-2,.cls-3{fill:#f15a29;}.cls-3{stroke-width:7px;}</style></defs><g id="Layer_2" data-name="Layer 2"><g id="Layer_1-2" data-name="Layer 1"><path class="cls-1" d="M117.38,76.52V110c0,18.42-15.75,33.5-35,33.5H38a35.1,35.1,0,0,1-35-35V64.12c0-19.25,14.88-35,33.07-35H69.14"/><path class="cls-2" d="M121.24,65.08a28.87,28.87,0,0,0,8-7.11"/><path class="cls-2" d="M129.26,58a29,29,0,1,0-8,7.11"/><line class="cls-3" x1="164.87" y1="0.02" x2="165.64" y2="157.29"/><path class="cls-2" d="M231.27,50.28a36.15,36.15,0,0,1,10.56,1.35,19.77,19.77,0,0,1,7.2,3.8,14.87,14.87,0,0,1,4.17,5.85,20.18,20.18,0,0,1,1.34,7.5q0,5.91-2.52,9.5a15.6,15.6,0,0,1-7.46,5.5,16.92,16.92,0,0,1,7.62,5.75,16.26,16.26,0,0,1,2.67,9.65,20.3,20.3,0,0,1-1.34,7.5,14.73,14.73,0,0,1-4.17,5.85,20.14,20.14,0,0,1-7.2,3.85,34.73,34.73,0,0,1-10.56,1.4H200.7q-5.77,0-5.77-5.5V55.78c0-3.66,1.92-5.5,5.77-5.5Zm-24.4,28.5h24.71q10.71,0,10.71-8.1a8.43,8.43,0,0,0-2.52-6.4c-1.68-1.6-4.38-2.4-8.08-2.4H208.21c-.89,0-1.34.4-1.34,1.2Zm0,26.2c0,.74.45,1.1,1.34,1.1h23.68c3.71,0,6.42-.76,8.14-2.3a8.28,8.28,0,0,0,2.57-6.5q0-8.7-10.71-8.7h-25Z"/><path class="cls-2" d="M307.26,50.28q15.23,0,23.32,8.4t8.08,25.5q0,17-8.08,25.3t-23.32,8.3h-9.48q-15.24,0-23.32-8.3t-8.08-25.3q0-17.1,8.08-25.5t23.32-8.4Zm-9.48,11.8q-10.08,0-14.67,5.2t-4.58,16.9q0,11.61,4.53,16.7t14.72,5.1h9.48q10,0,14.56-5.15t4.59-16.75q0-11.6-4.53-16.8t-14.62-5.2Z"/><path class="cls-2" d="M391.27,50.28q15.24,0,23.32,8.4t8.08,25.5q0,17-8.08,25.3t-23.32,8.3H381.8q-15.24,0-23.32-8.3t-8.09-25.3q0-17.1,8.09-25.5t23.32-8.4Zm-9.47,11.8q-10.1,0-14.68,5.2t-4.58,16.9q0,11.61,4.53,16.7T381.8,106h9.47q10,0,14.57-5.15t4.58-16.75q0-11.6-4.53-16.8t-14.62-5.2Z"/><path class="cls-2" d="M472.4,50.28a27.74,27.74,0,0,1,10.09,1.65,19.86,19.86,0,0,1,6.95,4.4,17,17,0,0,1,4,6.45,23.26,23.26,0,0,1,1.29,7.7,25.67,25.67,0,0,1-1.18,7.6,18.29,18.29,0,0,1-3.86,6.8,20.12,20.12,0,0,1-6.95,4.9,25.34,25.34,0,0,1-10.35,1.9H450.78a1.53,1.53,0,0,0-1.75,1.7v24.4H436.88V91.08q0-5.7,2.57-8.2c1.72-1.66,4.5-2.5,8.34-2.5h25a11,11,0,0,0,4.43-.8,8.08,8.08,0,0,0,3-2.1,8.69,8.69,0,0,0,1.7-3,10.49,10.49,0,0,0,.57-3.45,9.32,9.32,0,0,0-2.32-6.35c-1.54-1.76-4-2.65-7.26-2.65H436.78V50.28Z"/></g></g></svg>