<svg id="Layer_1" data-name="Layer 1" xmlns="http://www.w3.org/2000/svg" viewBox="0 0 747.27 327.18"><defs><style>.cls-1,.cls-3{fill:none;stroke-width:6px;}.cls-1,.cls-4{stroke:#f15a29;}.cls-1,.cls-3,.cls-4{stroke-miterlimit:10;}.cls-2,.cls-4,.cls-5{fill:#f15a29;}.cls-3{stroke:#2e3192;}.cls-4{stroke-width:7px;}.cls-5{font-size:100px;font-family:NasalizationRg-Regular, Nasalization;}</style></defs><path class="cls-1" d="M247.28,303.25v33.49c0,18.42-15.75,33.49-35,33.49H167.9a35.1,35.1,0,0,1-35-35V290.85c0-19.25,14.88-35,33.07-35H199" transform="translate(-129.9 -226.73)"/><path class="cls-2" d="M247.28,303.25" transform="translate(-129.9 -226.73)"/><path class="cls-3" d="M247.28,303.25" transform="translate(-129.9 -226.73)"/><path class="cls-2" d="M247.28,299" transform="translate(-129.9 -226.73)"/><path class="cls-3" d="M247.28,299" transform="translate(-129.9 -226.73)"/><path class="cls-2" d="M251.14,291.81a29.07,29.07,0,0,0,8-7.12" transform="translate(-129.9 -226.73)"/><path class="cls-2" d="M259.16,284.69a29,29,0,1,0-8,7.12" transform="translate(-129.9 -226.73)"/><line class="cls-4" x1="164.87" y1="0.02" x2="165.64" y2="157.29"/><text class="cls-5" transform="translate(186.49 117.78) scale(1.03 1)">BOOP</text><text x="-129.9" y="-226.73"/><text x="-129.9" y="-226.73"/></svg>